<svg width="112" height="129" viewBox="0 0 112 129" fill="none" xmlns="http://www.w3.org/2000/svg">
<g filter="url(#filter0_d_451_1767)">
<path d="M44.4444 109.476H67.5556C67.5556 115.814 62.3556 121 56 121C49.6444 121 44.4444 115.814 44.4444 109.476ZM108 97.9524V103.714H4V97.9524L15.5556 86.4286V51.8571C15.5556 33.9952 27.1111 18.4381 44.4444 13.2524V11.5238C44.4444 5.18571 49.6444 0 56 0C62.3556 0 67.5556 5.18571 67.5556 11.5238V13.2524C84.8889 18.4381 96.4444 33.9952 96.4444 51.8571V86.4286L108 97.9524ZM84.8889 51.8571C84.8889 35.7238 72.1778 23.0476 56 23.0476C39.8222 23.0476 27.1111 35.7238 27.1111 51.8571V92.1905H84.8889V51.8571Z" fill="white"/>
</g>
<defs>
<filter id="filter0_d_451_1767" x="0" y="0" width="112" height="129" filterUnits="userSpaceOnUse" color-interpolation-filters="sRGB">
<feFlood flood-opacity="0" result="BackgroundImageFix"/>
<feColorMatrix in="SourceAlpha" type="matrix" values="0 0 0 0 0 0 0 0 0 0 0 0 0 0 0 0 0 0 127 0" result="hardAlpha"/>
<feOffset dy="4"/>
<feGaussianBlur stdDeviation="2"/>
<feComposite in2="hardAlpha" operator="out"/>
<feColorMatrix type="matrix" values="0 0 0 0 0 0 0 0 0 0 0 0 0 0 0 0 0 0 0.25 0"/>
<feBlend mode="normal" in2="BackgroundImageFix" result="effect1_dropShadow_451_1767"/>
<feBlend mode="normal" in="SourceGraphic" in2="effect1_dropShadow_451_1767" result="shape"/>
</filter>
</defs>
</svg>
