<svg width="236" height="147" viewBox="0 0 236 147" fill="none" xmlns="http://www.w3.org/2000/svg">
<path d="M221.33 29.4H191.991V14.7C191.991 6.615 185.39 0 177.322 0H147.982C139.914 0 133.313 6.615 133.313 14.7V29.4H103.974C95.9053 29.4 89.304 36.015 89.304 44.1V132.3C89.304 140.385 95.9053 147 103.974 147H221.33C229.399 147 236 140.385 236 132.3V44.1C236 36.015 229.399 29.4 221.33 29.4ZM147.982 14.7H177.322V29.4H147.982V14.7ZM184.656 95.55H169.987V110.25C169.987 114.292 166.686 117.6 162.652 117.6C158.618 117.6 155.317 114.292 155.317 110.25V95.55H140.648C136.613 95.55 133.313 92.2425 133.313 88.2C133.313 84.1575 136.613 80.85 140.648 80.85H155.317V66.15C155.317 62.1075 158.618 58.8 162.652 58.8C166.686 58.8 169.987 62.1075 169.987 66.15V80.85H184.656C188.69 80.85 191.991 84.1575 191.991 88.2C191.991 92.2425 188.69 95.55 184.656 95.55Z" fill="white"/>
<line y1="-2.5" x2="82.3561" y2="-2.5" transform="matrix(0.999994 -0.00342505 0.00341086 0.999994 32.9421 50.5718)" stroke="white" stroke-width="5"/>
<line x1="1.4403e-09" y1="72.5479" x2="98.8267" y2="72.5479" stroke="white" stroke-width="5"/>
<line x1="1.4403e-09" y1="97.3052" x2="98.8267" y2="97.3052" stroke="white" stroke-width="5"/>
<line x1="16.4709" y1="122.063" x2="115.298" y2="122.063" stroke="white" stroke-width="5"/>
</svg>
